<svg viewBox="0 0 100.4 100.4" xml:space="preserve" xmlns="http://www.w3.org/2000/svg" enable-background="new 0 0 100.4 100.4"><path d="m92.9 60.4-7.4-5v-15l7.4-4.9c.4-.3.7-.7.7-1.2s-.3-1-.7-1.2L54.8 7.5c-.5-.3-1.2-.3-1.7 0l-47 31.4c-.2.1-.3.2-.4.4v.1c-.2.3-.2.5-.2.8v27.5c0 .5.3 1 .7 1.2l38.1 25.4c.3.2.5.3.8.3.3 0 .6-.1.8-.3L93 62.9c.4-.3.7-.7.7-1.2-.1-.6-.4-1.1-.8-1.3zM54 10.6l35.4 23.6-5.8 3.8c-.3.1-.6.3-.8.5L45 63.7 16.6 44.8c-.1-.1-.2-.1-.2-.2l-6.8-4.5L54 10.6zM17.1 48.8l27 18c.5.3 1.2.3 1.7 0l36.7-24.5v12.3L45.2 79.2l-28.1-18V48.8zM45 91.2 8.4 66.8V43l5.8 3.8V62c0 .5.3 1 .7 1.3l29.6 19c.2.2.5.2.8.2.3 0 .6-.1.8-.2l37.4-24.6 5.9 4L45 91.2z" fill="#7378ff" class="fill-000000"></path><path d="m47.5 24.3 17.8 12.2c.3.2.6.3.8.3.5 0 .9-.2 1.2-.7.5-.7.3-1.6-.4-2.1L49.2 21.8c-.7-.5-1.6-.3-2.1.4s-.3 1.6.4 2.1z" fill="#7378ff" class="fill-000000"></path></svg>