<svg width="24" height="24" xmlns="http://www.w3.org/2000/svg">

 <g>
  <title>background</title>
  <rect fill="none" id="canvas_background" height="402" width="582" y="-1" x="-1"/>
 </g>
 <g>
  <title>Layer 1</title>
  <path id="svg_1" d="m5.3,18.7c0.2,0.2 0.4,0.3 0.7,0.3s0.5,-0.1 0.7,-0.3l5.3,-5.3l5.3,5.3c0.2,0.2 0.5,0.3 0.7,0.3s0.5,-0.1 0.7,-0.3c0.4,-0.4 0.4,-1 0,-1.4l-5.3,-5.3l5.3,-5.3c0.4,-0.4 0.4,-1 0,-1.4s-1,-0.4 -1.4,0l-5.3,5.3l-5.3,-5.3c-0.4,-0.4 -1,-0.4 -1.4,0s-0.4,1 0,1.4l5.3,5.3l-5.3,5.3c-0.4,0.4 -0.4,1 0,1.4z"/>
 </g>
</svg>