<?xml version="1.0" ?><!DOCTYPE svg  PUBLIC '-//W3C//DTD SVG 1.1//EN'  'http://www.w3.org/Graphics/SVG/1.1/DTD/svg11.dtd'><svg height="8.4666mm" style="shape-rendering:geometricPrecision; text-rendering:geometricPrecision; image-rendering:optimizeQuality; fill-rule:evenodd; clip-rule:evenodd" version="1.1" viewBox="0 0 846.66 846.66" width="8.4666mm" xml:space="preserve" xmlns="http://www.w3.org/2000/svg" xmlns:xlink="http://www.w3.org/1999/xlink"><defs><style type="text/css">
   <![CDATA[
    .fil0 {fill:black;fill-rule:nonzero}
   ]]>
  </style></defs><g id="Layer_x0020_1"><path class="fil0" d="M29.56 41.86l787.54 0c11.45,0 20.73,9.29 20.73,20.74l0 498.86c0,11.45 -9.28,20.73 -20.73,20.73l-373.03 0 0 66.96c34.42,9.32 58.45,40.66 58.45,76.45 0,43.74 -35.45,79.2 -79.19,79.2 -43.74,0 -79.19,-35.46 -79.19,-79.2 0,-35.78 24.03,-67.13 58.45,-76.45l0 -66.96 -373.03 0c-11.45,0 -20.73,-9.28 -20.73,-20.73l0 -498.86c0,-11.45 9.28,-20.74 20.73,-20.74zm393.77 646.02c-20.83,0 -37.72,16.89 -37.72,37.72 0,20.84 16.89,37.73 37.72,37.73 20.83,0 37.72,-16.89 37.72,-37.73 0,-20.83 -16.89,-37.72 -37.72,-37.72zm-267.8 -258.82c-13.94,23.3 -49.42,2.08 -35.47,-21.22l101.92 -170.88c8.08,-13.5 27.51,-13.24 35.44,-0.06l54.59 90.11 122.24 -135.25c18.2,-20.12 48.82,7.59 30.62,27.7l-139.73 154.59c-8.75,11.49 -26.61,10.74 -34.21,-1.87l-51.11 -84.43 -84.29 141.31zm388.46 -192.23c-27.27,0 -27.27,-41.47 0,-41.47l164.88 0c27.27,0 27.27,41.47 0,41.47l-164.88 0zm0 191.86c-27.27,0 -27.27,-41.47 0,-41.47l164.88 0c27.27,0 27.27,41.47 0,41.47l-164.88 0zm0 -95.93c-27.27,0 -27.27,-41.47 0,-41.47l164.88 0c27.27,0 27.27,41.47 0,41.47l-164.88 0zm252.37 -249.43l-746.06 0 0 457.39 746.06 0 0 -457.39z"/></g></svg>